<svg height='300px' width='300px'  fill="#000000" xmlns:x="http://ns.adobe.com/Extensibility/1.0/" xmlns:i="http://ns.adobe.com/AdobeIllustrator/10.0/" xmlns:graph="http://ns.adobe.com/Graphs/1.0/" xmlns="http://www.w3.org/2000/svg" xmlns:xlink="http://www.w3.org/1999/xlink" version="1.1" x="0px" y="0px" viewBox="0 0 64 64" enable-background="new 0 0 64 64" xml:space="preserve"><metadata><sfw xmlns="http://ns.adobe.com/SaveForWeb/1.0/"><slices></slices><sliceSourceBounds y="-8160" x="-8165" width="16389" height="16384" bottomLeftOrigin="true"></sliceSourceBounds></sfw></metadata><g><g><path d="M56,38h-6v-8c0-1.104-0.896-2-2-2h-6c-1.104,0-2,0.896-2,2v14h-8V26c0-1.104-0.896-2-2-2h-2v-6c0-1.104-0.896-2-2-2h-2V8    c0-1.104-0.896-2-2-2s-2,0.896-2,2v8h-2c-1.104,0-2,0.896-2,2v6h-2c-1.104,0-2,0.896-2,2v8H8c-1.104,0-2,0.896-2,2v20    c0,1.104,0.896,2,2,2h48c1.104,0,2-0.896,2-2V40C58,38.896,57.104,38,56,38z M54,54H10V38h4c1.104,0,2-0.896,2-2v-8h2    c1.104,0,2-0.896,2-2v-6h4v6c0,1.104,0.896,2,2,2h2v18c0,1.104,0.896,2,2,2h12c1.104,0,2-0.896,2-2V32h2v8c0,1.104,0.896,2,2,2h6    V54z"></path><path d="M46,22c3.309,0,6-2.691,6-6s-2.691-6-6-6s-6,2.691-6,6S42.691,22,46,22z M46,14c1.103,0,2,0.897,2,2s-0.897,2-2,2    s-2-0.897-2-2S44.897,14,46,14z"></path></g></g></svg>